<?xml version="1.0" standalone="no"?>
<!DOCTYPE svg PUBLIC "-//W3C//DTD SVG 20010904//EN"
 "http://www.w3.org/TR/2001/REC-SVG-20010904/DTD/svg10.dtd">
<svg version="1.0" xmlns="http://www.w3.org/2000/svg"
 width="24.000000pt" height="24.000000pt" viewBox="0 0 24.000000 24.000000"
 preserveAspectRatio="xMidYMid meet">
<metadata>
Created by potrace 1.16, written by Peter Selinger 2001-2019
</metadata>
<g transform="translate(0.000000,24.000000) scale(0.002655,-0.002198)"
fill="#000000" stroke="none">
<path d="M2750 10900 c-177 -37 -346 -115 -490 -224 -54 -41 -438 -418 -1066
-1048 -1059 -1061 -1035 -1035 -1138 -1247 l-51 -106 -3 -675 -3 -675 26 -72
c31 -84 109 -223 173 -308 50 -66 1774 -1799 1942 -1953 205 -187 397 -284
644 -328 67 -12 304 -14 1401 -14 l1320 0 455 -455 455 -455 -455 -455 -455
-455 -1320 0 -1320 0 -580 580 -580 580 -853 -853 -852 -852 822 -820 c769
-767 829 -824 917 -877 116 -71 263 -129 401 -160 l105 -23 1940 0 c1816 0
1946 1 2027 18 173 35 322 96 473 195 90 58 2013 1973 2109 2099 119 158 202
354 231 550 21 137 21 807 1 943 -27 178 -92 345 -192 499 -48 73 -205 235
-1033 1065 -537 538 -1008 1004 -1047 1035 -140 113 -323 200 -509 242 l-100
23 -1340 3 -1341 4 -449 449 -450 450 455 455 455 455 1020 0 1020 0 577 -577
578 -578 853 853 852 852 -820 818 c-738 736 -829 822 -907 870 -158 97 -333
160 -503 181 -62 8 -584 11 -1700 10 -1517 0 -1615 -1 -1695 -19z"/>
</g>
</svg>
